<?xml version="1.0" encoding="UTF-8" standalone="no"?>
<svg
   viewBox="0 0 221.96323 192"
   shape-rendering="crispEdges"
   version="1.1"
   id="svg366"
   sodipodi:docname="puncover-logo.svg"
   width="221.96323"
   height="192"
   inkscape:version="1.2.2 (b0a8486541, 2022-12-01)"
   inkscape:export-filename="puncover-logo.png"
   inkscape:export-xdpi="96"
   inkscape:export-ydpi="96"
   xmlns:inkscape="http://www.inkscape.org/namespaces/inkscape"
   xmlns:sodipodi="http://sodipodi.sourceforge.net/DTD/sodipodi-0.dtd"
   xmlns="http://www.w3.org/2000/svg"
   xmlns:svg="http://www.w3.org/2000/svg">
  <defs
     id="defs370" />
  <sodipodi:namedview
     id="namedview368"
     pagecolor="#ffffff"
     bordercolor="#000000"
     borderopacity="0.25"
     inkscape:showpageshadow="2"
     inkscape:pageopacity="0.0"
     inkscape:pagecheckerboard="0"
     inkscape:deskcolor="#d1d1d1"
     showgrid="false"
     inkscape:zoom="3.2897038"
     inkscape:cx="0.60795747"
     inkscape:cy="125.08725"
     inkscape:window-width="2494"
     inkscape:window-height="1371"
     inkscape:window-x="66"
     inkscape:window-y="32"
     inkscape:window-maximized="1"
     inkscape:current-layer="svg366" />
  <title
     id="title234">puncover</title>
  <desc
     id="desc236">Pixel-art magnifying glass over a microcontroller chip.</desc>
  <!-- Chip -->
  <g
     id="g282">
    <!-- Pins left -->
    <rect
       x="0"
       y="48"
       width="12"
       height="12"
       fill="#3a3a3a"
       id="rect238" />
    <rect
       x="0"
       y="72"
       width="12"
       height="12"
       fill="#3a3a3a"
       id="rect240" />
    <rect
       x="0"
       y="96"
       width="12"
       height="12"
       fill="#3a3a3a"
       id="rect242" />
    <rect
       x="0"
       y="120"
       width="12"
       height="12"
       fill="#3a3a3a"
       id="rect244" />
    <!-- Pins right -->
    <rect
       x="180"
       y="48"
       width="12"
       height="12"
       fill="#3a3a3a"
       id="rect246" />
    <rect
       x="180"
       y="72"
       width="12"
       height="12"
       fill="#3a3a3a"
       id="rect248" />
    <rect
       x="180"
       y="96"
       width="12"
       height="12"
       fill="#3a3a3a"
       id="rect250" />
    <rect
       x="180"
       y="120"
       width="12"
       height="12"
       fill="#3a3a3a"
       id="rect252" />
    <!-- Pins top -->
    <rect
       x="48"
       y="0"
       width="12"
       height="12"
       fill="#3a3a3a"
       id="rect254" />
    <rect
       x="72"
       y="0"
       width="12"
       height="12"
       fill="#3a3a3a"
       id="rect256" />
    <rect
       x="96"
       y="0"
       width="12"
       height="12"
       fill="#3a3a3a"
       id="rect258" />
    <rect
       x="120"
       y="0"
       width="12"
       height="12"
       fill="#3a3a3a"
       id="rect260" />
    <!-- Pins bottom -->
    <rect
       x="48"
       y="180"
       width="12"
       height="12"
       fill="#3a3a3a"
       id="rect262" />
    <rect
       x="72"
       y="180"
       width="12"
       height="12"
       fill="#3a3a3a"
       id="rect264" />
    <rect
       x="96"
       y="180"
       width="12"
       height="12"
       fill="#3a3a3a"
       id="rect266" />
    <rect
       x="120"
       y="180"
       width="12"
       height="12"
       fill="#3a3a3a"
       id="rect268" />
    <!-- Chip body -->
    <rect
       x="12"
       y="12"
       width="168"
       height="168"
       fill="#2a3340"
       id="rect270" />
    <rect
       x="12"
       y="12"
       width="168"
       height="12"
       fill="#3d4a5e"
       id="rect272" />
    <rect
       x="12"
       y="12"
       width="12"
       height="168"
       fill="#3d4a5e"
       id="rect274" />
    <rect
       x="12"
       y="168"
       width="168"
       height="12"
       fill="#1a2230"
       id="rect276" />
    <rect
       x="168"
       y="12"
       width="12"
       height="168"
       fill="#1a2230"
       id="rect278" />
    <!-- Pin-1 dot -->
    <rect
       x="36"
       y="36"
       width="12"
       height="12"
       fill="#e8c468"
       id="rect280" />
  </g>
  <!-- Magnifying glass -->
  <rect
     x="102"
     y="30"
     width="48"
     height="12"
     fill="#9aa3b0"
     id="rect284" />
  <rect
     x="90"
     y="42"
     width="12"
     height="12"
     fill="#9aa3b0"
     id="rect286" />
  <rect
     x="150"
     y="42"
     width="12"
     height="12"
     fill="#9aa3b0"
     id="rect288" />
  <rect
     x="78"
     y="54"
     width="12"
     height="12"
     fill="#9aa3b0"
     id="rect290" />
  <rect
     x="162"
     y="54"
     width="12"
     height="12"
     fill="#9aa3b0"
     id="rect292" />
  <rect
     x="66"
     y="66"
     width="12"
     height="48"
     fill="#9aa3b0"
     id="rect294" />
  <rect
     x="174"
     y="66"
     width="12"
     height="48"
     fill="#9aa3b0"
     id="rect296" />
  <rect
     x="78"
     y="114"
     width="12"
     height="12"
     fill="#9aa3b0"
     id="rect298" />
  <rect
     x="162"
     y="114"
     width="12"
     height="12"
     fill="#9aa3b0"
     id="rect300" />
  <rect
     x="90"
     y="126"
     width="12"
     height="12"
     fill="#9aa3b0"
     id="rect302" />
  <rect
     x="150"
     y="126"
     width="12"
     height="12"
     fill="#9aa3b0"
     id="rect304" />
  <rect
     x="102"
     y="138"
     width="48"
     height="12"
     fill="#9aa3b0"
     id="rect306" />
  <rect
     x="102"
     y="42"
     width="48"
     height="12"
     fill="#a8e0f0"
     fill-opacity="0.55"
     id="rect308" />
  <rect
     x="90"
     y="54"
     width="72"
     height="12"
     fill="#a8e0f0"
     fill-opacity="0.55"
     id="rect310" />
  <rect
     x="78"
     y="66"
     width="96"
     height="48"
     fill="#a8e0f0"
     fill-opacity="0.55"
     id="rect312" />
  <rect
     x="90"
     y="114"
     width="72"
     height="12"
     fill="#a8e0f0"
     fill-opacity="0.55"
     id="rect314" />
  <rect
     x="102"
     y="126"
     width="48"
     height="12"
     fill="#a8e0f0"
     fill-opacity="0.55"
     id="rect316" />
  <rect
     x="102"
     y="54"
     width="12"
     height="12"
     fill="#ffffff"
     fill-opacity="0.85"
     id="rect318" />
  <rect
     x="90"
     y="66"
     width="12"
     height="12"
     fill="#ffffff"
     fill-opacity="0.85"
     id="rect320" />
  <rect
     x="161.96323"
     y="125.98785"
     width="24"
     height="24"
     fill="#8a5a28"
     id="rect322" />
  <rect
     x="161.96323"
     y="125.98785"
     width="24"
     height="6"
     fill="#a87238"
     id="rect324" />
  <rect
     x="161.96323"
     y="143.98785"
     width="24"
     height="6"
     fill="#6a4218"
     id="rect326" />
  <rect
     x="161.96323"
     y="125.98785"
     width="6"
     height="24"
     fill="#a87238"
     id="rect328" />
  <rect
     x="179.96323"
     y="125.98785"
     width="6"
     height="24"
     fill="#6a4218"
     id="rect330" />
  <rect
     x="173.96323"
     y="137.98785"
     width="24"
     height="24"
     fill="#8a5a28"
     id="rect332" />
  <rect
     x="173.96323"
     y="137.98785"
     width="24"
     height="6"
     fill="#a87238"
     id="rect334" />
  <rect
     x="173.96323"
     y="155.98785"
     width="24"
     height="6"
     fill="#6a4218"
     id="rect336" />
  <rect
     x="173.96323"
     y="137.98785"
     width="6"
     height="24"
     fill="#a87238"
     id="rect338" />
  <rect
     x="191.96323"
     y="137.98785"
     width="6"
     height="24"
     fill="#6a4218"
     id="rect340" />
  <rect
     x="185.96323"
     y="149.98785"
     width="24"
     height="24"
     fill="#8a5a28"
     id="rect342" />
  <rect
     x="185.96323"
     y="149.98785"
     width="24"
     height="6"
     fill="#a87238"
     id="rect344" />
  <rect
     x="185.96323"
     y="167.98785"
     width="24"
     height="6"
     fill="#6a4218"
     id="rect346" />
  <rect
     x="185.96323"
     y="149.98785"
     width="6"
     height="24"
     fill="#a87238"
     id="rect348" />
  <rect
     x="203.96323"
     y="149.98785"
     width="6"
     height="24"
     fill="#6a4218"
     id="rect350" />
  <rect
     x="197.96323"
     y="161.98785"
     width="24"
     height="24"
     fill="#8a5a28"
     id="rect352" />
  <rect
     x="197.96323"
     y="161.98785"
     width="24"
     height="6"
     fill="#a87238"
     id="rect354" />
  <rect
     x="197.96323"
     y="179.98785"
     width="24"
     height="6"
     fill="#6a4218"
     id="rect356" />
  <rect
     x="197.96323"
     y="161.98785"
     width="6"
     height="24"
     fill="#a87238"
     id="rect358" />
  <rect
     x="215.96323"
     y="161.98785"
     width="6"
     height="24"
     fill="#6a4218"
     id="rect360" />
  <rect
     x="203.96323"
     y="167.98785"
     width="12"
     height="12"
     fill="#9a6a38"
     id="rect362" />
</svg>
